# xmcd CD database file
#
# Track frame offsets:
#	150
#	13050
#	27405
#	40620
#	55580
#	70815
#	86422
#	98025
#	105905
#	116642
#	131282
#	141422
#	157297
#	170992
#
# Disc length: 2533 seconds
#
# Revision: 0
# Processed by: cddbd v1.5PL3 Copyright (c) Steve Scherf et al.
# Submitted via: CDex 1.50
#
DISCID=b809e30e
DTITLE=Groovy Rednecks - Ass Grabbin' Country
DYEAR=2003
DGENRE=Country
TTITLE0=Drinkin' Band
TTITLE1=It's Gettin' Crowded (In My Little World)
TTITLE2=By Girlfriend's Got a Boyfriend
TTITLE3=Bring A Beer
TTITLE4=Who Wears the Pants?
TTITLE5=Mama T
TTITLE6=She Done Me Wrong
TTITLE7=Can't Take It Anymore
TTITLE8=Happy Mother's Day From Prison
TTITLE9=Achin' County USA
TTITLE10=So Long
TTITLE11=Hollywood Hills
TTITLE12=My Wife Got Hit By A Truck
TTITLE13=Tinseltown
EXTD=YEAR: 2003
EXTT0=
EXTT1=
EXTT2=
EXTT3=
EXTT4=
EXTT5=
EXTT6=
EXTT7=
EXTT8=
EXTT9=
EXTT10=
EXTT11=
EXTT12=
EXTT13=
PLAYORDER=
